<?xml version="1.0" encoding="UTF-8"?>
<svg version="1.1" xmlns="http://www.w3.org/2000/svg" width="225" height="225">
<path d="M0 0 C0 0.66 0 1.32 0 2 C0.5332489 2.21022293 1.0664978 2.42044586 1.61590576 2.63703918 C4.93377406 4.5338285 7.45399234 7.13398032 10.14550781 9.80737305 C10.75081329 10.40114243 11.35611877 10.9949118 11.97976685 11.60667419 C13.97663797 13.56928396 15.9655683 15.53967902 17.953125 17.51171875 C18.63347557 18.18516642 19.31382614 18.85861408 20.0147934 19.55246925 C23.61259289 23.11446033 27.20422716 26.68253805 30.79101562 30.25561523 C34.49727305 33.9452969 38.22400506 37.61355261 41.95586014 41.27731609 C44.82253584 44.09924495 47.673524 46.9366321 50.52046967 49.77845192 C51.88779386 51.13787613 53.26099641 52.49141428 54.64011383 53.83887291 C56.56763557 55.72502182 58.47188645 57.63202083 60.37207031 59.5456543 C61.23226273 60.37280945 61.23226273 60.37280945 62.10983276 61.2166748 C64.89974684 64.07425765 65.96257993 65.71648147 66.4911499 69.7212677 C65.85513462 73.96706686 63.90206255 75.89634912 60.8125 78.625 C59.84957031 79.52476563 58.88664062 80.42453125 57.89453125 81.3515625 C56.93933594 82.22554688 55.98414063 83.09953125 55 84 C51.64692067 87.32151246 48.3409261 90.68715334 45.04541016 94.06567383 C40.30727155 98.91779319 35.55168223 103.7523985 30.78560829 108.57707691 C27.91046698 111.48886144 25.04228314 114.40689015 22.18847656 117.33959961 C19.41644642 120.18773563 16.62761253 123.01837878 13.82636642 125.83777428 C12.7652731 126.91177012 11.71034508 127.9918946 10.66188431 129.07822609 C9.19499115 130.59602511 7.70752911 132.09039188 6.21337891 133.58129883 C5.37352448 134.43669754 4.53367004 135.29209625 3.66836548 136.17341614 C0.21600317 138.53667159 -1.89670802 138.48668655 -6 138 C-8.8359375 136.05859375 -8.8359375 136.05859375 -11.375 133.4375 C-12.22835937 132.59058594 -13.08171875 131.74367187 -13.9609375 130.87109375 C-16.44183137 127.37788111 -16.87660357 125.26814274 -17 121 C-15.30471802 118.36959839 -15.30471802 118.36959839 -12.72314453 115.87841797 C-12.25672546 115.41725586 -11.7903064 114.95609375 -11.30975342 114.48095703 C-9.76834328 112.96544923 -8.20107292 111.4798483 -6.6328125 109.9921875 C-5.55558963 108.94006 -4.48041029 107.88583652 -3.40719604 106.82962036 C-0.58000713 104.05559342 2.26856982 101.30470606 5.12402344 98.55981445 C9.691835 94.16460146 14.23302185 89.74229817 18.76144791 85.30655289 C20.34594558 83.76288209 21.94340929 82.23361824 23.54269409 80.70529175 C24.51704065 79.75826461 25.49095132 78.81078873 26.46435547 77.86279297 C27.31786591 77.04229462 28.17137634 76.22179626 29.05075073 75.37643433 C31.18858827 72.77008193 31.94404779 71.36406856 32 68 C30.95920371 66.00534519 30.95920371 66.00534519 29.18164062 64.29736328 C28.52977783 63.60821838 27.87791504 62.91907349 27.20629883 62.20904541 C26.47822021 61.48006042 25.7501416 60.75107544 25 60 C24.25194092 59.24603943 23.50388184 58.49207886 22.7331543 57.715271 C20.20572106 55.2041052 17.65191575 52.72202127 15.09375 50.2421875 C13.19701929 48.38241226 11.3011523 46.52179092 9.40625 44.66015625 C6.44159441 41.74956115 3.47198835 38.84456263 0.484375 35.95751953 C-1.47922378 34.05928936 -3.43327865 32.15217313 -5.37731934 30.23391724 C-7.20096107 28.43468819 -9.0379534 26.64887083 -10.88928223 24.87814331 C-11.7076355 24.06354645 -12.52598877 23.24894958 -13.36914062 22.40966797 C-14.09637329 21.70099579 -14.82360596 20.99232361 -15.57287598 20.26217651 C-17 18 -17 18 -16.8314209 14.87747192 C-15.8672602 11.54059964 -14.60365144 9.84754187 -12.25 7.3125 C-11.57453125 6.56613281 -10.8990625 5.81976563 -10.203125 5.05078125 C-6.97760662 2.04830403 -4.48832436 0 0 0 Z " fill="#F6F7F7" transform="translate(115,43)"/>
<path d="M0 0 C2.27435482 1.64192978 3.96499904 3.07724085 5.875 5.0625 C6.37257812 5.52849609 6.87015625 5.99449219 7.3828125 6.47460938 C9.89698604 9.01295766 10.95845906 10.73809703 11.52001953 14.27856445 C10.8066024 19.38401858 8.57125946 21.24925455 4.875 24.6328125 C4.25351074 25.23253876 3.63202148 25.83226501 2.99169922 26.45016479 C1.01041725 28.35934984 -0.99219007 30.24376102 -3 32.125 C-5.00592484 34.01505046 -7.00604315 35.90991502 -8.99169922 37.82125854 C-10.22585441 39.00839697 -11.47198439 40.18323847 -12.73095703 41.34402466 C-15.17341632 43.68639682 -16.8561638 45.30733841 -17.55615234 48.67822266 C-16.91359058 51.36073466 -16.12868844 52.53455594 -14.2265625 54.515625 C-13.6490625 55.12664062 -13.0715625 55.73765625 -12.4765625 56.3671875 C-11.86554688 56.98851562 -11.25453125 57.60984375 -10.625 58.25 C-10.02171875 58.88679688 -9.4184375 59.52359375 -8.796875 60.1796875 C-5.72510069 63.51754722 -5.72510069 63.51754722 -2 66 C-2 66.66 -2 67.32 -2 68 C-1.4225 68.226875 -0.845 68.45375 -0.25 68.6875 C2.59591381 70.34761639 3.99841921 72.39187957 6 75 C6.928125 75.78375 7.85625 76.5675 8.8125 77.375 C11 80 11 80 10.92578125 83.32421875 C9.85160655 87.58919085 8.4749156 89.36099766 5.375 92.4375 C4.53710938 93.30246094 3.69921875 94.16742188 2.8359375 95.05859375 C-0.78958719 97.54053007 -2.66886698 97.44564607 -7 97 C-9.55015564 95.33200073 -9.55015564 95.33200073 -11.92553711 92.96435547 C-12.82594223 92.08278778 -13.72634735 91.20122009 -14.65403748 90.29293823 C-15.61263025 89.31849792 -16.57037929 88.34322697 -17.52734375 87.3671875 C-18.52515618 86.37155253 -19.52408083 85.37703107 -20.52406311 84.38357544 C-22.61218931 82.30124627 -24.68743073 80.20708671 -26.75415039 78.10351562 C-29.40100113 75.41115591 -32.07590007 72.74888488 -34.76087093 70.09460258 C-36.82663816 68.0466499 -38.87762661 65.98439462 -40.92437935 63.91745377 C-41.90529151 62.9300362 -42.89052553 61.94689229 -43.8801403 60.96819687 C-45.2614847 59.59740816 -46.62138096 58.20510826 -47.98022461 56.81201172 C-49.14768471 55.63286697 -49.14768471 55.63286697 -50.33872986 54.42990112 C-52.47529846 51.30479201 -52.62967229 49.71686093 -52 46 C-50.29403687 43.53213501 -50.29403687 43.53213501 -47.87255859 41.09619141 C-46.97097015 40.17569 -46.06938171 39.2551886 -45.14047241 38.30679321 C-44.14388713 37.32094775 -43.14652274 36.33588936 -42.1484375 35.3515625 C-41.13060047 34.32968175 -40.11365537 33.3069119 -39.0975647 32.28329468 C-36.96675151 30.14364495 -34.82548821 28.0151994 -32.67626953 25.89404297 C-29.92512705 23.17708628 -27.20180494 20.43407611 -24.48575401 17.68209267 C-22.39129366 15.56592821 -20.28272319 13.4642913 -18.16963577 11.36674118 C-17.15974268 10.36084437 -16.15427059 9.3504884 -15.15339279 8.33562088 C-13.75140594 6.91836076 -12.3280079 5.52237858 -10.90380859 4.12744141 C-10.0999472 3.32835358 -9.29608582 2.52926575 -8.46786499 1.70596313 C-5.38056252 -0.42819908 -3.68219442 -0.50234262 0 0 Z " fill="#04DD66" transform="translate(96,64)"/>
<path d="M0 0 C0.99 0.66 1.98 1.32 3 2 C2.61853301 7.71494072 1.43381105 10.40934462 -2.625 14.4375 C-3.88183594 15.73494141 -3.88183594 15.73494141 -5.1640625 17.05859375 C-8.71224382 19.48758289 -10.78256618 19.52655238 -15 19 C-16.9375 17 -16.9375 17 -18 15 C-13.545 15.99 -13.545 15.99 -9 17 C-9 15.35 -9 13.7 -9 12 C-8.67 12.66 -8.34 13.32 -8 14 C-7.01 14 -6.02 14 -5 14 C-5 13.34 -5 12.68 -5 12 C-5.66 11.67 -6.32 11.34 -7 11 C-5.37660195 9.29115995 -3.70680947 7.62553283 -2 6 C-1.34 6 -0.68 6 0 6 C0 4.02 0 2.04 0 0 Z " fill="#11BD67" transform="translate(104,142)"/>
<path d="M0 0 C3.60174007 1.33778917 6.71899957 3.01413132 10 5 C10.99 5.33 11.98 5.66 13 6 C14.25 7.8125 14.25 7.8125 15 10 C14.546875 12.13671875 14.546875 12.13671875 14 14 C9.10565787 9.90473413 4.29279666 5.73642915 0 1 C0 0.67 0 0.34 0 0 Z " fill="#0CBE65" transform="translate(72,143)"/>
<path d="M0 0 C0.33 0.66 0.66 1.32 1 2 C1.99 2 2.98 2 4 2 C2.125 5.875 2.125 5.875 1 7 C-2.375 7.3125 -2.375 7.3125 -6 7 C-7.9375 5 -7.9375 5 -9 3 C-4.545 3.99 -4.545 3.99 0 5 C0 3.35 0 1.7 0 0 Z " fill="#16B369" transform="translate(95,154)"/>
<path d="M0 0 C3.59412911 1.33496224 6.92170156 2.69127617 10 5 C10.6875 7.625 10.6875 7.625 11 10 C11.66 10.33 12.32 10.66 13 11 C10 11 10 11 7.51953125 8.84765625 C6.62621094 7.92855469 5.73289062 7.00945312 4.8125 6.0625 C3.91144531 5.14597656 3.01039062 4.22945312 2.08203125 3.28515625 C0 1 0 1 0 0 Z " fill="#0FB263" transform="translate(56,127)"/>
<path d="M0 0 C0 0.99 0 1.98 0 3 C-0.639375 3.598125 -1.27875 4.19625 -1.9375 4.8125 C-4.47334819 7.50203596 -4.67116942 9.38286362 -5 13 C-4.01 13.33 -3.02 13.66 -2 14 C-2.66 14.66 -3.32 15.32 -4 16 C-6.36328202 14.22753848 -6.96187462 13.16775165 -7.625 10.25 C-6.69787766 5.42896381 -3.62201606 3.12306487 0 0 Z " fill="#18B26C" transform="translate(51,103)"/>
<path d="M0 0 C0 0.66 0 1.32 0 2 C-1.0209375 2.2784375 -1.0209375 2.2784375 -2.0625 2.5625 C-6.18689821 4.58082253 -8.90378945 7.66287393 -12 11 C-12.66 10.67 -13.32 10.34 -14 10 C-6.02739726 0 -6.02739726 0 0 0 Z " fill="#8F9398" transform="translate(115,43)"/>
<path d="M0 0 C2.5 1.5625 2.5 1.5625 5 4 C5.3125 7.75 5.3125 7.75 5 11 C4.01 11.495 4.01 11.495 3 12 C2.67 9.03 2.34 6.06 2 3 C1.34 3 0.68 3 0 3 C0 2.01 0 1.02 0 0 Z " fill="#1BAE6A" transform="translate(102,71)"/>
<path d="M0 0 C2.625 -0.4375 2.625 -0.4375 6 0 C8.33122122 2.0949488 10.17328621 4.46073827 12 7 C9 7 9 7 6.8125 5.125 C5 3 5 3 5 1 C3.35 1 1.7 1 0 1 C0 0.67 0 0.34 0 0 Z " fill="#12A45C" transform="translate(90,64)"/>
<path d="M0 0 C1.98 0.99 1.98 0.99 4 2 C4 2.66 4 3.32 4 4 C5.32 4.66 6.64 5.32 8 6 C8 6.99 8 7.98 8 9 C4.48536988 7.10019993 2.10449322 5.43364683 0 2 C0 1.34 0 0.68 0 0 Z " fill="#199F61" transform="translate(90,128)"/>
<path d="M0 0 C0.25 2.3125 0.25 2.3125 0 5 C-2 6.8125 -2 6.8125 -4 8 C-4.36780384 3.46375267 -4.36780384 3.46375267 -2.5625 1.1875 C-1 0 -1 0 0 0 Z " fill="#0BCC67" transform="translate(105,79)"/>
<path d="M0 0 C1.85776765 3.13498292 2.20140476 5.37471432 2 9 C1.01 8.67 0.02 8.34 -1 8 C-0.67 5.36 -0.34 2.72 0 0 Z " fill="#07D05A" transform="translate(103,140)"/>
</svg>
